<svg xmlns="http://www.w3.org/2000/svg" xmlns:xlink="http://www.w3.org/1999/xlink" width="654" height="209" font-size="8.000000pt" font-family="Arial" fill="#000000"><polygon points="284.500000,44.500000 284.500000,24.500000 332.500000,48.500000 332.500000,68.500000 " fill="#dd2222" stroke="#000000" stroke-width="1"/><polygon points="380.500000,44.500000 380.500000,24.500000 332.500000,48.500000 332.500000,68.500000 " fill="#aa0000" stroke="#000000" stroke-width="1"/><polygon points="284.500000,24.500000 332.500000,0.500000 380.500000,24.500000 332.500000,48.500000 " fill="#ff5555" stroke="#000000" stroke-width="1"/><polygon points="372.500000,64.500000 372.500000,64.500000 396.500000,76.500000 396.500000,76.500000 " fill="#999999" stroke="#000000" stroke-width="1"/><polygon points="420.500000,64.500000 420.500000,64.500000 396.500000,76.500000 396.500000,76.500000 " fill="#666666" stroke="#000000" stroke-width="1"/><polygon points="372.500000,64.500000 396.500000,52.500000 420.500000,64.500000 396.500000,76.500000 " fill="#cccccc" stroke="#000000" stroke-width="1"/><polygon points="244.500000,64.500000 244.500000,64.500000 268.500000,76.500000 268.500000,76.500000 " fill="#999999" stroke="#000000" stroke-width="1"/><polygon points="292.500000,64.500000 292.500000,64.500000 268.500000,76.500000 268.500000,76.500000 " fill="#666666" stroke="#000000" stroke-width="1"/><polygon points="244.500000,64.500000 268.500000,52.500000 292.500000,64.500000 268.500000,76.500000 " fill="#cccccc" stroke="#000000" stroke-width="1"/><polygon points="276.500000,80.500000 276.500000,80.500000 300.500000,92.500000 300.500000,92.500000 " fill="#999999" stroke="#000000" stroke-width="1"/><polygon points="324.500000,80.500000 324.500000,80.500000 300.500000,92.500000 300.500000,92.500000 " fill="#666666" stroke="#000000" stroke-width="1"/><polygon points="276.500000,80.500000 300.500000,68.500000 324.500000,80.500000 300.500000,92.500000 " fill="#cccccc" stroke="#000000" stroke-width="1"/><polygon points="340.500000,80.500000 340.500000,80.500000 364.500000,92.500000 364.500000,92.500000 " fill="#999999" stroke="#000000" stroke-width="1"/><polygon points="388.500000,80.500000 388.500000,80.500000 364.500000,92.500000 364.500000,92.500000 " fill="#666666" stroke="#000000" stroke-width="1"/><polygon points="340.500000,80.500000 364.500000,68.500000 388.500000,80.500000 364.500000,92.500000 " fill="#cccccc" stroke="#000000" stroke-width="1"/><polygon points="212.500000,80.500000 212.500000,80.500000 236.500000,92.500000 236.500000,92.500000 " fill="#999999" stroke="#000000" stroke-width="1"/><polygon points="260.500000,80.500000 260.500000,80.500000 236.500000,92.500000 236.500000,92.500000 " fill="#666666" stroke="#000000" stroke-width="1"/><polygon points="212.500000,80.500000 236.500000,68.500000 260.500000,80.500000 236.500000,92.500000 " fill="#cccccc" stroke="#000000" stroke-width="1"/><polygon points="404.500000,80.500000 404.500000,80.500000 428.500000,92.500000 428.500000,92.500000 " fill="#999999" stroke="#000000" stroke-width="1"/><polygon points="452.500000,80.500000 452.500000,80.500000 428.500000,92.500000 428.500000,92.500000 " fill="#666666" stroke="#000000" stroke-width="1"/><polygon points="404.500000,80.500000 428.500000,68.500000 452.500000,80.500000 428.500000,92.500000 " fill="#cccccc" stroke="#000000" stroke-width="1"/><polygon points="308.500000,96.500000 308.500000,96.500000 332.500000,108.500000 332.500000,108.500000 " fill="#999999" stroke="#000000" stroke-width="1"/><polygon points="356.500000,96.500000 356.500000,96.500000 332.500000,108.500000 332.500000,108.500000 " fill="#666666" stroke="#000000" stroke-width="1"/><polygon points="308.500000,96.500000 332.500000,84.500000 356.500000,96.500000 332.500000,108.500000 " fill="#cccccc" stroke="#000000" stroke-width="1"/><polygon points="244.500000,96.500000 244.500000,96.500000 268.500000,108.500000 268.500000,108.500000 " fill="#999999" stroke="#000000" stroke-width="1"/><polygon points="292.500000,96.500000 292.500000,96.500000 268.500000,108.500000 268.500000,108.500000 " fill="#666666" stroke="#000000" stroke-width="1"/><polygon points="244.500000,96.500000 268.500000,84.500000 292.500000,96.500000 268.500000,108.500000 " fill="#cccccc" stroke="#000000" stroke-width="1"/><polygon points="372.500000,96.500000 372.500000,96.500000 396.500000,108.500000 396.500000,108.500000 " fill="#999999" stroke="#000000" stroke-width="1"/><polygon points="420.500000,96.500000 420.500000,96.500000 396.500000,108.500000 396.500000,108.500000 " fill="#666666" stroke="#000000" stroke-width="1"/><polygon points="372.500000,96.500000 396.500000,84.500000 420.500000,96.500000 396.500000,108.500000 " fill="#cccccc" stroke="#000000" stroke-width="1"/><polygon points="180.500000,96.500000 180.500000,96.500000 204.500000,108.500000 204.500000,108.500000 " fill="#999999" stroke="#000000" stroke-width="1"/><polygon points="228.500000,96.500000 228.500000,96.500000 204.500000,108.500000 204.500000,108.500000 " fill="#666666" stroke="#000000" stroke-width="1"/><polygon points="180.500000,96.500000 204.500000,84.500000 228.500000,96.500000 204.500000,108.500000 " fill="#cccccc" stroke="#000000" stroke-width="1"/><polygon points="436.500000,96.500000 436.500000,96.500000 460.500000,108.500000 460.500000,108.500000 " fill="#999999" stroke="#000000" stroke-width="1"/><polygon points="484.500000,96.500000 484.500000,96.500000 460.500000,108.500000 460.500000,108.500000 " fill="#666666" stroke="#000000" stroke-width="1"/><polygon points="436.500000,96.500000 460.500000,84.500000 484.500000,96.500000 460.500000,108.500000 " fill="#cccccc" stroke="#000000" stroke-width="1"/><polygon points="276.500000,112.500000 276.500000,112.500000 300.500000,124.500000 300.500000,124.500000 " fill="#999999" stroke="#000000" stroke-width="1"/><polygon points="324.500000,112.500000 324.500000,112.500000 300.500000,124.500000 300.500000,124.500000 " fill="#666666" stroke="#000000" stroke-width="1"/><polygon points="276.500000,112.500000 300.500000,100.500000 324.500000,112.500000 300.500000,124.500000 " fill="#cccccc" stroke="#000000" stroke-width="1"/><polygon points="340.500000,112.500000 340.500000,112.500000 364.500000,124.500000 364.500000,124.500000 " fill="#999999" stroke="#000000" stroke-width="1"/><polygon points="388.500000,112.500000 388.500000,112.500000 364.500000,124.500000 364.500000,124.500000 " fill="#666666" stroke="#000000" stroke-width="1"/><polygon points="340.500000,112.500000 364.500000,100.500000 388.500000,112.500000 364.500000,124.500000 " fill="#cccccc" stroke="#000000" stroke-width="1"/><polygon points="212.500000,112.500000 212.500000,112.500000 236.500000,124.500000 236.500000,124.500000 " fill="#999999" stroke="#000000" stroke-width="1"/><polygon points="260.500000,112.500000 260.500000,112.500000 236.500000,124.500000 236.500000,124.500000 " fill="#666666" stroke="#000000" stroke-width="1"/><polygon points="212.500000,112.500000 236.500000,100.500000 260.500000,112.500000 236.500000,124.500000 " fill="#cccccc" stroke="#000000" stroke-width="1"/><polygon points="404.500000,112.500000 404.500000,112.500000 428.500000,124.500000 428.500000,124.500000 " fill="#999999" stroke="#000000" stroke-width="1"/><polygon points="452.500000,112.500000 452.500000,112.500000 428.500000,124.500000 428.500000,124.500000 " fill="#666666" stroke="#000000" stroke-width="1"/><polygon points="404.500000,112.500000 428.500000,100.500000 452.500000,112.500000 428.500000,124.500000 " fill="#cccccc" stroke="#000000" stroke-width="1"/><polygon points="148.500000,112.500000 148.500000,112.500000 172.500000,124.500000 172.500000,124.500000 " fill="#999999" stroke="#000000" stroke-width="1"/><polygon points="196.500000,112.500000 196.500000,112.500000 172.500000,124.500000 172.500000,124.500000 " fill="#666666" stroke="#000000" stroke-width="1"/><polygon points="148.500000,112.500000 172.500000,100.500000 196.500000,112.500000 172.500000,124.500000 " fill="#cccccc" stroke="#000000" stroke-width="1"/><polygon points="308.500000,128.500000 308.500000,128.500000 332.500000,140.500000 332.500000,140.500000 " fill="#999999" stroke="#000000" stroke-width="1"/><polygon points="356.500000,128.500000 356.500000,128.500000 332.500000,140.500000 332.500000,140.500000 " fill="#666666" stroke="#000000" stroke-width="1"/><polygon points="308.500000,128.500000 332.500000,116.500000 356.500000,128.500000 332.500000,140.500000 " fill="#cccccc" stroke="#000000" stroke-width="1"/><polygon points="244.500000,128.500000 244.500000,128.500000 268.500000,140.500000 268.500000,140.500000 " fill="#999999" stroke="#000000" stroke-width="1"/><polygon points="292.500000,128.500000 292.500000,128.500000 268.500000,140.500000 268.500000,140.500000 " fill="#666666" stroke="#000000" stroke-width="1"/><polygon points="244.500000,128.500000 268.500000,116.500000 292.500000,128.500000 268.500000,140.500000 " fill="#cccccc" stroke="#000000" stroke-width="1"/><polygon points="372.500000,128.500000 372.500000,128.500000 396.500000,140.500000 396.500000,140.500000 " fill="#999999" stroke="#000000" stroke-width="1"/><polygon points="420.500000,128.500000 420.500000,128.500000 396.500000,140.500000 396.500000,140.500000 " fill="#666666" stroke="#000000" stroke-width="1"/><polygon points="372.500000,128.500000 396.500000,116.500000 420.500000,128.500000 396.500000,140.500000 " fill="#cccccc" stroke="#000000" stroke-width="1"/><polygon points="180.500000,128.500000 180.500000,128.500000 204.500000,140.500000 204.500000,140.500000 " fill="#999999" stroke="#000000" stroke-width="1"/><polygon points="228.500000,128.500000 228.500000,128.500000 204.500000,140.500000 204.500000,140.500000 " fill="#666666" stroke="#000000" stroke-width="1"/><polygon points="180.500000,128.500000 204.500000,116.500000 228.500000,128.500000 204.500000,140.500000 " fill="#cccccc" stroke="#000000" stroke-width="1"/><polygon points="500.500000,128.500000 500.500000,128.500000 524.500000,140.500000 524.500000,140.500000 " fill="#999999" stroke="#000000" stroke-width="1"/><polygon points="548.500000,128.500000 548.500000,128.500000 524.500000,140.500000 524.500000,140.500000 " fill="#666666" stroke="#000000" stroke-width="1"/><polygon points="500.500000,128.500000 524.500000,116.500000 548.500000,128.500000 524.500000,140.500000 " fill="#cccccc" stroke="#000000" stroke-width="1"/><polygon points="276.500000,144.500000 276.500000,144.500000 300.500000,156.500000 300.500000,156.500000 " fill="#999999" stroke="#000000" stroke-width="1"/><polygon points="324.500000,144.500000 324.500000,144.500000 300.500000,156.500000 300.500000,156.500000 " fill="#666666" stroke="#000000" stroke-width="1"/><polygon points="276.500000,144.500000 300.500000,132.500000 324.500000,144.500000 300.500000,156.500000 " fill="#cccccc" stroke="#000000" stroke-width="1"/><polygon points="340.500000,144.500000 340.500000,144.500000 364.500000,156.500000 364.500000,156.500000 " fill="#999999" stroke="#000000" stroke-width="1"/><polygon points="388.500000,144.500000 388.500000,144.500000 364.500000,156.500000 364.500000,156.500000 " fill="#666666" stroke="#000000" stroke-width="1"/><polygon points="340.500000,144.500000 364.500000,132.500000 388.500000,144.500000 364.500000,156.500000 " fill="#cccccc" stroke="#000000" stroke-width="1"/><polygon points="212.500000,144.500000 212.500000,144.500000 236.500000,156.500000 236.500000,156.500000 " fill="#999999" stroke="#000000" stroke-width="1"/><polygon points="260.500000,144.500000 260.500000,144.500000 236.500000,156.500000 236.500000,156.500000 " fill="#666666" stroke="#000000" stroke-width="1"/><polygon points="212.500000,144.500000 236.500000,132.500000 260.500000,144.500000 236.500000,156.500000 " fill="#cccccc" stroke="#000000" stroke-width="1"/><polygon points="480.500000,138.500000 480.500000,138.500000 492.500000,144.500000 492.500000,144.500000 " fill="#999999" stroke="#000000" stroke-width="1"/><polygon points="504.500000,138.500000 504.500000,138.500000 492.500000,144.500000 492.500000,144.500000 " fill="#666666" stroke="#000000" stroke-width="1"/><polygon points="480.500000,138.500000 492.500000,132.500000 504.500000,138.500000 492.500000,144.500000 " fill="#cccccc" stroke="#000000" stroke-width="1"/><polygon points="544.500000,138.500000 544.500000,138.500000 556.500000,144.500000 556.500000,144.500000 " fill="#999999" stroke="#000000" stroke-width="1"/><polygon points="568.500000,138.500000 568.500000,138.500000 556.500000,144.500000 556.500000,144.500000 " fill="#666666" stroke="#000000" stroke-width="1"/><polygon points="544.500000,138.500000 556.500000,132.500000 568.500000,138.500000 556.500000,144.500000 " fill="#cccccc" stroke="#000000" stroke-width="1"/><polygon points="528.500000,146.500000 528.500000,146.500000 540.500000,152.500000 540.500000,152.500000 " fill="#999999" stroke="#000000" stroke-width="1"/><polygon points="552.500000,146.500000 552.500000,146.500000 540.500000,152.500000 540.500000,152.500000 " fill="#666666" stroke="#000000" stroke-width="1"/><polygon points="528.500000,146.500000 540.500000,140.500000 552.500000,146.500000 540.500000,152.500000 " fill="#cccccc" stroke="#000000" stroke-width="1"/><polygon points="496.500000,146.500000 496.500000,146.500000 508.500000,152.500000 508.500000,152.500000 " fill="#999999" stroke="#000000" stroke-width="1"/><polygon points="520.500000,146.500000 520.500000,146.500000 508.500000,152.500000 508.500000,152.500000 " fill="#666666" stroke="#000000" stroke-width="1"/><polygon points="496.500000,146.500000 508.500000,140.500000 520.500000,146.500000 508.500000,152.500000 " fill="#cccccc" stroke="#000000" stroke-width="1"/><polygon points="560.500000,146.500000 560.500000,146.500000 572.500000,152.500000 572.500000,152.500000 " fill="#999999" stroke="#000000" stroke-width="1"/><polygon points="584.500000,146.500000 584.500000,146.500000 572.500000,152.500000 572.500000,152.500000 " fill="#666666" stroke="#000000" stroke-width="1"/><polygon points="560.500000,146.500000 572.500000,140.500000 584.500000,146.500000 572.500000,152.500000 " fill="#cccccc" stroke="#000000" stroke-width="1"/><polygon points="464.500000,146.500000 464.500000,146.500000 476.500000,152.500000 476.500000,152.500000 " fill="#999999" stroke="#000000" stroke-width="1"/><polygon points="488.500000,146.500000 488.500000,146.500000 476.500000,152.500000 476.500000,152.500000 " fill="#666666" stroke="#000000" stroke-width="1"/><polygon points="464.500000,146.500000 476.500000,140.500000 488.500000,146.500000 476.500000,152.500000 " fill="#cccccc" stroke="#000000" stroke-width="1"/><polygon points="308.500000,160.500000 308.500000,160.500000 332.500000,172.500000 332.500000,172.500000 " fill="#999999" stroke="#000000" stroke-width="1"/><polygon points="356.500000,160.500000 356.500000,160.500000 332.500000,172.500000 332.500000,172.500000 " fill="#666666" stroke="#000000" stroke-width="1"/><polygon points="308.500000,160.500000 332.500000,148.500000 356.500000,160.500000 332.500000,172.500000 " fill="#cccccc" stroke="#000000" stroke-width="1"/><polygon points="512.500000,154.500000 512.500000,154.500000 524.500000,160.500000 524.500000,160.500000 " fill="#999999" stroke="#000000" stroke-width="1"/><polygon points="536.500000,154.500000 536.500000,154.500000 524.500000,160.500000 524.500000,160.500000 " fill="#666666" stroke="#000000" stroke-width="1"/><polygon points="512.500000,154.500000 524.500000,148.500000 536.500000,154.500000 524.500000,160.500000 " fill="#cccccc" stroke="#000000" stroke-width="1"/><polygon points="544.500000,154.500000 544.500000,154.500000 556.500000,160.500000 556.500000,160.500000 " fill="#999999" stroke="#000000" stroke-width="1"/><polygon points="568.500000,154.500000 568.500000,154.500000 556.500000,160.500000 556.500000,160.500000 " fill="#666666" stroke="#000000" stroke-width="1"/><polygon points="544.500000,154.500000 556.500000,148.500000 568.500000,154.500000 556.500000,160.500000 " fill="#cccccc" stroke="#000000" stroke-width="1"/><polygon points="480.500000,154.500000 480.500000,154.500000 492.500000,160.500000 492.500000,160.500000 " fill="#999999" stroke="#000000" stroke-width="1"/><polygon points="504.500000,154.500000 504.500000,154.500000 492.500000,160.500000 492.500000,160.500000 " fill="#666666" stroke="#000000" stroke-width="1"/><polygon points="480.500000,154.500000 492.500000,148.500000 504.500000,154.500000 492.500000,160.500000 " fill="#cccccc" stroke="#000000" stroke-width="1"/><polygon points="576.500000,154.500000 576.500000,154.500000 588.500000,160.500000 588.500000,160.500000 " fill="#999999" stroke="#000000" stroke-width="1"/><polygon points="600.500000,154.500000 600.500000,154.500000 588.500000,160.500000 588.500000,160.500000 " fill="#666666" stroke="#000000" stroke-width="1"/><polygon points="576.500000,154.500000 588.500000,148.500000 600.500000,154.500000 588.500000,160.500000 " fill="#cccccc" stroke="#000000" stroke-width="1"/><polygon points="448.500000,154.500000 448.500000,154.500000 460.500000,160.500000 460.500000,160.500000 " fill="#999999" stroke="#000000" stroke-width="1"/><polygon points="472.500000,154.500000 472.500000,154.500000 460.500000,160.500000 460.500000,160.500000 " fill="#666666" stroke="#000000" stroke-width="1"/><polygon points="448.500000,154.500000 460.500000,148.500000 472.500000,154.500000 460.500000,160.500000 " fill="#cccccc" stroke="#000000" stroke-width="1"/><polygon points="528.500000,162.500000 528.500000,162.500000 540.500000,168.500000 540.500000,168.500000 " fill="#999999" stroke="#000000" stroke-width="1"/><polygon points="552.500000,162.500000 552.500000,162.500000 540.500000,168.500000 540.500000,168.500000 " fill="#666666" stroke="#000000" stroke-width="1"/><polygon points="528.500000,162.500000 540.500000,156.500000 552.500000,162.500000 540.500000,168.500000 " fill="#cccccc" stroke="#000000" stroke-width="1"/><polygon points="496.500000,162.500000 496.500000,162.500000 508.500000,168.500000 508.500000,168.500000 " fill="#999999" stroke="#000000" stroke-width="1"/><polygon points="520.500000,162.500000 520.500000,162.500000 508.500000,168.500000 508.500000,168.500000 " fill="#666666" stroke="#000000" stroke-width="1"/><polygon points="496.500000,162.500000 508.500000,156.500000 520.500000,162.500000 508.500000,168.500000 " fill="#cccccc" stroke="#000000" stroke-width="1"/><polygon points="560.500000,162.500000 560.500000,162.500000 572.500000,168.500000 572.500000,168.500000 " fill="#999999" stroke="#000000" stroke-width="1"/><polygon points="584.500000,162.500000 584.500000,162.500000 572.500000,168.500000 572.500000,168.500000 " fill="#666666" stroke="#000000" stroke-width="1"/><polygon points="560.500000,162.500000 572.500000,156.500000 584.500000,162.500000 572.500000,168.500000 " fill="#cccccc" stroke="#000000" stroke-width="1"/><polygon points="464.500000,162.500000 464.500000,162.500000 476.500000,168.500000 476.500000,168.500000 " fill="#999999" stroke="#000000" stroke-width="1"/><polygon points="488.500000,162.500000 488.500000,162.500000 476.500000,168.500000 476.500000,168.500000 " fill="#666666" stroke="#000000" stroke-width="1"/><polygon points="464.500000,162.500000 476.500000,156.500000 488.500000,162.500000 476.500000,168.500000 " fill="#cccccc" stroke="#000000" stroke-width="1"/><polygon points="288.500000,170.500000 288.500000,170.500000 300.500000,176.500000 300.500000,176.500000 " fill="#999999" stroke="#000000" stroke-width="1"/><polygon points="312.500000,170.500000 312.500000,170.500000 300.500000,176.500000 300.500000,176.500000 " fill="#666666" stroke="#000000" stroke-width="1"/><polygon points="288.500000,170.500000 300.500000,164.500000 312.500000,170.500000 300.500000,176.500000 " fill="#cccccc" stroke="#000000" stroke-width="1"/><polygon points="352.500000,170.500000 352.500000,170.500000 364.500000,176.500000 364.500000,176.500000 " fill="#999999" stroke="#000000" stroke-width="1"/><polygon points="376.500000,170.500000 376.500000,170.500000 364.500000,176.500000 364.500000,176.500000 " fill="#666666" stroke="#000000" stroke-width="1"/><polygon points="352.500000,170.500000 364.500000,164.500000 376.500000,170.500000 364.500000,176.500000 " fill="#cccccc" stroke="#000000" stroke-width="1"/><polygon points="512.500000,170.500000 512.500000,170.500000 524.500000,176.500000 524.500000,176.500000 " fill="#999999" stroke="#000000" stroke-width="1"/><polygon points="536.500000,170.500000 536.500000,170.500000 524.500000,176.500000 524.500000,176.500000 " fill="#666666" stroke="#000000" stroke-width="1"/><polygon points="512.500000,170.500000 524.500000,164.500000 536.500000,170.500000 524.500000,176.500000 " fill="#cccccc" stroke="#000000" stroke-width="1"/><polygon points="544.500000,170.500000 544.500000,170.500000 556.500000,176.500000 556.500000,176.500000 " fill="#999999" stroke="#000000" stroke-width="1"/><polygon points="568.500000,170.500000 568.500000,170.500000 556.500000,176.500000 556.500000,176.500000 " fill="#666666" stroke="#000000" stroke-width="1"/><polygon points="544.500000,170.500000 556.500000,164.500000 568.500000,170.500000 556.500000,176.500000 " fill="#cccccc" stroke="#000000" stroke-width="1"/><polygon points="336.500000,178.500000 336.500000,178.500000 348.500000,184.500000 348.500000,184.500000 " fill="#999999" stroke="#000000" stroke-width="1"/><polygon points="360.500000,178.500000 360.500000,178.500000 348.500000,184.500000 348.500000,184.500000 " fill="#666666" stroke="#000000" stroke-width="1"/><polygon points="336.500000,178.500000 348.500000,172.500000 360.500000,178.500000 348.500000,184.500000 " fill="#cccccc" stroke="#000000" stroke-width="1"/><polygon points="528.500000,178.500000 528.500000,178.500000 540.500000,184.500000 540.500000,184.500000 " fill="#999999" stroke="#000000" stroke-width="1"/><polygon points="552.500000,178.500000 552.500000,178.500000 540.500000,184.500000 540.500000,184.500000 " fill="#666666" stroke="#000000" stroke-width="1"/><polygon points="528.500000,178.500000 540.500000,172.500000 552.500000,178.500000 540.500000,184.500000 " fill="#cccccc" stroke="#000000" stroke-width="1"/><text clip-path="url(#cp-1)" x="294" y="28" stroke="#ffffff" stroke-width="2" paint-order="stroke" stroke-opacity="0.75"><tspan x="332" text-anchor="middle">COOP by Ryder</tspan></text><clipPath id="cp-1"><rect x="293" y="16" width="77" height="15"/></clipPath></svg>
